<?xml version="1.0" standalone="no"?>
<!DOCTYPE svg PUBLIC "-//W3C//DTD SVG 20010904//EN"
 "http://www.w3.org/TR/2001/REC-SVG-20010904/DTD/svg10.dtd">
<svg version="1.0" xmlns="http://www.w3.org/2000/svg"
 width="450.000000pt" height="450.000000pt" viewBox="0 0 450.000000 450.000000"
 preserveAspectRatio="xMidYMid meet">
<metadata>
Created by potrace 1.14, written by Peter Selinger 2001-2017
</metadata>
<g transform="translate(0.000000,450.000000) scale(0.100000,-0.100000)"
fill="#000000" stroke="none">
<path d="M316 3914 c-23 -22 -23 -196 0 -218 14 -14 204 -16 1939 -16 1735 0
1925 2 1939 16 23 22 23 196 0 218 -14 14 -204 16 -1939 16 -1735 0 -1925 -2
-1939 -16z"/>
<path d="M1080 3270 c-17 -17 -20 -33 -20 -120 0 -158 -156 -140 1190 -140
1346 0 1190 -18 1190 140 0 158 156 140 -1190 140 -1137 0 -1150 0 -1170 -20z"/>
<path d="M316 2664 c-23 -22 -23 -196 0 -218 14 -14 204 -16 1939 -16 1735 0
1925 2 1939 16 23 22 23 196 0 218 -14 14 -204 16 -1939 16 -1735 0 -1925 -2
-1939 -16z"/>
<path d="M1080 2010 c-17 -17 -20 -33 -20 -120 0 -158 -156 -140 1190 -140
1346 0 1190 -18 1190 140 0 158 156 140 -1190 140 -1137 0 -1150 0 -1170 -20z"/>
<path d="M316 1394 c-23 -22 -23 -196 0 -218 14 -14 204 -16 1939 -16 1735 0
1925 2 1939 16 23 22 23 196 0 218 -14 14 -204 16 -1939 16 -1735 0 -1925 -2
-1939 -16z"/>
<path d="M1080 740 c-17 -17 -20 -33 -20 -120 0 -158 -156 -140 1190 -140
1346 0 1190 -18 1190 140 0 158 156 140 -1190 140 -1137 0 -1150 0 -1170 -20z"/>
</g>
</svg>
